<mxfile host="app.diagrams.net" modified="2024-04-19T05:44:22.451Z" agent="Mozilla/5.0 (Windows NT 10.0; Win64; x64) AppleWebKit/537.36 (KHTML, like Gecko) Chrome/123.0.0.0 Safari/537.36" etag="dDpVrp0et92f-j_7MjMl" version="24.2.1" type="device">
  <diagram name="Page-1" id="YmZzpUMRzrepBQBJoROi">
    <mxGraphModel dx="678" dy="400" grid="1" gridSize="10" guides="1" tooltips="1" connect="1" arrows="1" fold="1" page="1" pageScale="1" pageWidth="850" pageHeight="1100" math="0" shadow="0">
      <root>
        <mxCell id="0" />
        <mxCell id="1" parent="0" />
        <mxCell id="SNNsSSdKVMXQKB3dtVM5-7" style="edgeStyle=orthogonalEdgeStyle;rounded=0;orthogonalLoop=1;jettySize=auto;html=1;entryX=0;entryY=0.5;entryDx=0;entryDy=0;exitX=0.5;exitY=1;exitDx=0;exitDy=0;" edge="1" parent="1" source="SNNsSSdKVMXQKB3dtVM5-1" target="SNNsSSdKVMXQKB3dtVM5-4">
          <mxGeometry relative="1" as="geometry">
            <Array as="points">
              <mxPoint x="130" y="150" />
            </Array>
          </mxGeometry>
        </mxCell>
        <mxCell id="SNNsSSdKVMXQKB3dtVM5-8" style="edgeStyle=orthogonalEdgeStyle;rounded=0;orthogonalLoop=1;jettySize=auto;html=1;" edge="1" parent="1" source="SNNsSSdKVMXQKB3dtVM5-1" target="SNNsSSdKVMXQKB3dtVM5-2">
          <mxGeometry relative="1" as="geometry" />
        </mxCell>
        <mxCell id="SNNsSSdKVMXQKB3dtVM5-1" value="Macroeconomic&amp;nbsp;&lt;div&gt;Data&lt;/div&gt;" style="rounded=0;whiteSpace=wrap;html=1;" vertex="1" parent="1">
          <mxGeometry x="70" y="80" width="120" height="60" as="geometry" />
        </mxCell>
        <mxCell id="SNNsSSdKVMXQKB3dtVM5-9" style="edgeStyle=orthogonalEdgeStyle;rounded=0;orthogonalLoop=1;jettySize=auto;html=1;" edge="1" parent="1" source="SNNsSSdKVMXQKB3dtVM5-2" target="SNNsSSdKVMXQKB3dtVM5-3">
          <mxGeometry relative="1" as="geometry" />
        </mxCell>
        <mxCell id="SNNsSSdKVMXQKB3dtVM5-2" value="KNN Clustering" style="rounded=0;whiteSpace=wrap;html=1;" vertex="1" parent="1">
          <mxGeometry x="210" y="80" width="120" height="60" as="geometry" />
        </mxCell>
        <mxCell id="SNNsSSdKVMXQKB3dtVM5-10" style="edgeStyle=orthogonalEdgeStyle;rounded=0;orthogonalLoop=1;jettySize=auto;html=1;entryX=0.5;entryY=0;entryDx=0;entryDy=0;" edge="1" parent="1" source="SNNsSSdKVMXQKB3dtVM5-3" target="SNNsSSdKVMXQKB3dtVM5-4">
          <mxGeometry relative="1" as="geometry">
            <Array as="points">
              <mxPoint x="550" y="110" />
            </Array>
          </mxGeometry>
        </mxCell>
        <mxCell id="SNNsSSdKVMXQKB3dtVM5-3" value="Determine the Economic Phase" style="rounded=0;whiteSpace=wrap;html=1;" vertex="1" parent="1">
          <mxGeometry x="350" y="80" width="120" height="60" as="geometry" />
        </mxCell>
        <mxCell id="SNNsSSdKVMXQKB3dtVM5-11" style="edgeStyle=orthogonalEdgeStyle;rounded=0;orthogonalLoop=1;jettySize=auto;html=1;entryX=0;entryY=0.5;entryDx=0;entryDy=0;" edge="1" parent="1" source="SNNsSSdKVMXQKB3dtVM5-4" target="SNNsSSdKVMXQKB3dtVM5-5">
          <mxGeometry relative="1" as="geometry" />
        </mxCell>
        <mxCell id="SNNsSSdKVMXQKB3dtVM5-4" value="Random Tree Classifier" style="rounded=0;whiteSpace=wrap;html=1;" vertex="1" parent="1">
          <mxGeometry x="490" y="120" width="120" height="60" as="geometry" />
        </mxCell>
        <mxCell id="SNNsSSdKVMXQKB3dtVM5-5" value="Recommended Investment Portfolio Diversification" style="rounded=0;whiteSpace=wrap;html=1;" vertex="1" parent="1">
          <mxGeometry x="630" y="120" width="120" height="60" as="geometry" />
        </mxCell>
        <mxCell id="SNNsSSdKVMXQKB3dtVM5-18" style="edgeStyle=orthogonalEdgeStyle;rounded=0;orthogonalLoop=1;jettySize=auto;html=1;entryX=0;entryY=0.5;entryDx=0;entryDy=0;" edge="1" parent="1" source="SNNsSSdKVMXQKB3dtVM5-12" target="SNNsSSdKVMXQKB3dtVM5-13">
          <mxGeometry relative="1" as="geometry" />
        </mxCell>
        <mxCell id="SNNsSSdKVMXQKB3dtVM5-12" value="User Personal Data and Monthly Income" style="rounded=0;whiteSpace=wrap;html=1;" vertex="1" parent="1">
          <mxGeometry x="70" y="350" width="120" height="60" as="geometry" />
        </mxCell>
        <mxCell id="SNNsSSdKVMXQKB3dtVM5-19" style="edgeStyle=orthogonalEdgeStyle;rounded=0;orthogonalLoop=1;jettySize=auto;html=1;" edge="1" parent="1" source="SNNsSSdKVMXQKB3dtVM5-13" target="SNNsSSdKVMXQKB3dtVM5-14">
          <mxGeometry relative="1" as="geometry" />
        </mxCell>
        <mxCell id="SNNsSSdKVMXQKB3dtVM5-13" value="Vector DB" style="rounded=0;whiteSpace=wrap;html=1;" vertex="1" parent="1">
          <mxGeometry x="210" y="350" width="120" height="60" as="geometry" />
        </mxCell>
        <mxCell id="SNNsSSdKVMXQKB3dtVM5-20" style="edgeStyle=orthogonalEdgeStyle;rounded=0;orthogonalLoop=1;jettySize=auto;html=1;" edge="1" parent="1" source="SNNsSSdKVMXQKB3dtVM5-14" target="SNNsSSdKVMXQKB3dtVM5-15">
          <mxGeometry relative="1" as="geometry" />
        </mxCell>
        <mxCell id="SNNsSSdKVMXQKB3dtVM5-14" value="Similarity Search" style="rounded=0;whiteSpace=wrap;html=1;" vertex="1" parent="1">
          <mxGeometry x="350" y="350" width="120" height="60" as="geometry" />
        </mxCell>
        <mxCell id="SNNsSSdKVMXQKB3dtVM5-22" style="edgeStyle=orthogonalEdgeStyle;rounded=0;orthogonalLoop=1;jettySize=auto;html=1;entryX=0.5;entryY=1;entryDx=0;entryDy=0;" edge="1" parent="1" source="SNNsSSdKVMXQKB3dtVM5-15" target="SNNsSSdKVMXQKB3dtVM5-13">
          <mxGeometry relative="1" as="geometry">
            <Array as="points">
              <mxPoint x="550" y="430" />
              <mxPoint x="270" y="430" />
            </Array>
          </mxGeometry>
        </mxCell>
        <mxCell id="SNNsSSdKVMXQKB3dtVM5-23" style="edgeStyle=orthogonalEdgeStyle;rounded=0;orthogonalLoop=1;jettySize=auto;html=1;entryX=0.5;entryY=1;entryDx=0;entryDy=0;" edge="1" parent="1" source="SNNsSSdKVMXQKB3dtVM5-15" target="SNNsSSdKVMXQKB3dtVM5-17">
          <mxGeometry relative="1" as="geometry" />
        </mxCell>
        <mxCell id="SNNsSSdKVMXQKB3dtVM5-15" value="Text Embedding" style="rounded=0;whiteSpace=wrap;html=1;" vertex="1" parent="1">
          <mxGeometry x="490" y="350" width="120" height="60" as="geometry" />
        </mxCell>
        <mxCell id="SNNsSSdKVMXQKB3dtVM5-21" style="edgeStyle=orthogonalEdgeStyle;rounded=0;orthogonalLoop=1;jettySize=auto;html=1;entryX=0.5;entryY=0;entryDx=0;entryDy=0;" edge="1" parent="1" source="SNNsSSdKVMXQKB3dtVM5-16" target="SNNsSSdKVMXQKB3dtVM5-15">
          <mxGeometry relative="1" as="geometry" />
        </mxCell>
        <mxCell id="SNNsSSdKVMXQKB3dtVM5-16" value="User Question" style="rounded=0;whiteSpace=wrap;html=1;" vertex="1" parent="1">
          <mxGeometry x="490" y="270" width="120" height="60" as="geometry" />
        </mxCell>
        <mxCell id="SNNsSSdKVMXQKB3dtVM5-17" value="AWS Bedrock" style="rounded=0;whiteSpace=wrap;html=1;" vertex="1" parent="1">
          <mxGeometry x="630" y="300" width="120" height="60" as="geometry" />
        </mxCell>
      </root>
    </mxGraphModel>
  </diagram>
</mxfile>
